# xmcd
#
# Track frame offsets: 
#        150
#        13464
#        26970
#        40387
#        54872
#        67974
#        79738
#        93065
#        108468
#        121177
#        136405
#        149010
#        162921
#        175220
#        188685
#        201278
#        214752
#        229353
#        244121
#        256620
#        270004
#        283793
#        298597
#
# Disc length: 4172 seconds
#
# Revision: 2
# Processed by: cddbd v1.5.2PL0 Copyright (c) Steve Scherf et al.
# Submitted via: ExactAudioCopy v1.0b1
#
DISCID=4e104a17
DTITLE=Various Artist - Twenty First St. Stomp
DYEAR=2002
DGENRE=Blues
TTITLE0=Stump Johnson - Kind Babe Blues
TTITLE1=Henry Brown - Henry Brown Blues
TTITLE2=Mary Johnson - Black Men Blues
TTITLE3=Sparks Brothers - 4-11-44
TTITLE4=Eddie Miller - Good Jelly Blues
TTITLE5=Peetie Wheatstraw - Ice and Snow Blues
TTITLE6=Charles "Speck" Pertum - Harvest Moon Blues
TTITLE7=Charles McFadden - Low Down Rounders Blues
TTITLE8=Roosevelt Sykes - Drinkin' Woman Blues
TTITLE9=Walter Davis - West Coast Blues
TTITLE10=Stump Johnson - Don't Give My Lard Away
TTITLE11=Stump Johnson - Bound to be a Monkey
TTITLE12=Henry Brown - Twenty First St. Stomp
TTITLE13=Eddie Miller - Whoopee
TTITLE14=Sparks Brothers - East Chicago Blues
TTITLE15=James Gordon - Neck Bones Blues
TTITLE16=Dorothy Parker - Steady Grinding Blues
TTITLE17=Robert Peeples - Fat Greasy Baby
TTITLE18=Mary Johnson - No Good Town Blues
TTITLE19=Mary Johnson - Death Cell Blues
TTITLE20=Tecumseh McDowell - So Called Friend Blues
TTITLE21=Milton Sparks - Grinder Man Blues
TTITLE22=Sparks Brothers - 61 Highway
EXTD=
EXTT0=
EXTT1=
EXTT2=
EXTT3=
EXTT4=
EXTT5=
EXTT6=
EXTT7=
EXTT8=
EXTT9=
EXTT10=
EXTT11=
EXTT12=
EXTT13=
EXTT14=
EXTT15=
EXTT16=
EXTT17=
EXTT18=
EXTT19=
EXTT20=
EXTT21=
EXTT22=
PLAYORDER=
